<svg id="svg" version="1.1" xmlns="http://www.w3.org/2000/svg" xmlns:xlink="http://www.w3.org/1999/xlink" width="400" height="125.65622353937341" viewBox="0, 0, 400,125.65622353937341"><g id="svgg"><path id="path0" d="M291.167 10.160 C 289.749 10.463,288.161 11.017,287.784 11.340 C 287.674 11.434,287.165 11.758,286.655 12.059 C 282.806 14.329,281.005 17.444,281.005 21.833 C 281.005 27.198,284.225 31.044,290.917 33.670 C 291.467 33.886,291.954 34.107,292.000 34.160 C 292.046 34.214,292.802 34.539,293.680 34.883 C 299.259 37.067,301.647 40.631,300.422 44.945 C 298.856 50.464,290.550 51.813,282.659 47.830 C 282.091 47.543,281.572 47.370,281.507 47.446 C 281.269 47.721,279.996 52.229,280.121 52.352 C 280.736 52.955,283.732 54.013,286.545 54.621 C 288.554 55.054,294.531 55.045,296.417 54.606 C 300.849 53.573,304.005 51.250,305.828 47.678 C 307.342 44.710,307.130 38.579,305.439 36.417 C 303.561 34.016,302.935 33.328,302.007 32.645 C 300.605 31.614,297.870 30.203,295.750 29.416 C 289.454 27.080,287.167 24.926,287.167 21.333 C 287.167 15.458,293.978 13.107,301.862 16.262 C 303.639 16.973,303.452 17.107,304.313 14.500 C 305.168 11.908,305.194 12.136,303.958 11.451 C 301.249 9.948,295.071 9.325,291.167 10.160 M3.917 10.300 C 2.569 10.766,1.130 12.154,0.435 13.657 L 0.083 14.417 0.040 40.886 L -0.004 67.355 0.639 68.011 C 1.267 68.652,2.833 69.009,2.833 68.511 C 2.833 68.426,2.989 68.307,3.178 68.246 C 4.076 67.961,4.165 67.451,4.166 62.625 C 4.166 60.173,4.218 58.167,4.281 58.167 C 4.935 58.167,11.288 63.845,13.150 66.094 C 15.598 69.050,18.566 74.052,20.243 78.049 C 22.086 82.442,22.577 83.533,23.517 85.324 C 27.720 93.325,34.768 100.710,42.167 104.865 L 43.583 105.661 32.934 105.664 L 22.284 105.667 20.934 104.292 C 17.131 100.420,14.883 95.251,14.524 89.558 C 14.319 86.308,12.234 85.100,10.578 87.271 L 10.118 87.874 10.211 90.082 C 10.262 91.297,10.378 92.431,10.470 92.603 C 10.561 92.776,10.761 93.542,10.913 94.306 C 11.511 97.311,13.426 101.706,15.231 104.218 C 15.746 104.934,16.167 105.553,16.167 105.593 C 16.167 105.634,13.722 105.667,10.733 105.667 L 5.300 105.667 4.733 105.100 L 4.167 104.533 4.167 92.511 C 4.167 82.672,4.125 80.389,3.937 79.939 C 3.271 78.347,1.042 78.181,0.290 79.669 C 0.016 80.211,-0.001 81.101,0.040 92.917 L 0.083 105.583 0.525 106.525 C 1.087 107.723,2.110 108.747,3.309 109.309 L 4.250 109.750 42.500 109.750 L 80.750 109.750 81.677 109.295 C 82.794 108.746,84.208 107.313,84.714 106.216 L 85.083 105.417 85.083 60.000 L 85.083 14.583 84.707 13.768 C 84.078 12.405,82.136 10.623,80.906 10.281 C 79.325 9.841,5.188 9.859,3.917 10.300 M104.083 10.212 C 102.342 10.283,100.054 10.470,99.000 10.629 L 97.083 10.917 97.041 32.609 L 96.999 54.302 98.624 54.443 C 101.299 54.674,110.725 54.616,112.167 54.359 C 119.424 53.067,123.098 50.285,124.329 45.148 C 125.798 39.020,122.985 33.321,117.459 31.228 L 116.250 30.771 117.583 30.108 C 125.161 26.344,125.112 15.772,117.500 12.068 C 116.813 11.733,116.063 11.365,115.833 11.250 C 114.019 10.337,109.916 9.975,104.083 10.212 M132.167 32.417 L 132.167 54.333 144.583 54.333 L 157.000 54.333 157.000 51.917 L 157.000 49.500 147.583 49.500 L 138.167 49.500 138.167 41.667 L 138.167 33.833 146.583 33.833 L 155.000 33.833 155.000 31.417 L 155.000 29.000 146.583 29.000 L 138.167 29.000 138.167 22.250 L 138.167 15.500 147.083 15.500 L 156.000 15.500 156.000 13.000 L 156.000 10.500 144.083 10.500 L 132.167 10.500 132.167 32.417 M163.000 13.000 L 163.000 15.500 174.087 15.500 L 185.174 15.500 183.483 17.958 C 182.553 19.310,181.445 20.963,181.021 21.631 C 180.597 22.298,179.688 23.612,179.000 24.550 C 177.825 26.153,175.002 30.286,170.894 36.417 C 169.911 37.883,168.680 39.646,168.159 40.333 C 167.100 41.730,164.667 45.250,164.667 45.386 C 164.667 45.435,163.842 46.676,162.833 48.144 L 161.000 50.814 161.000 52.574 L 161.000 54.333 177.083 54.333 L 193.167 54.333 193.167 51.917 L 193.167 49.500 181.018 49.500 L 168.869 49.500 171.576 45.458 C 173.065 43.235,175.421 39.767,176.812 37.750 C 180.257 32.754,186.187 24.046,187.907 21.459 C 188.684 20.291,189.461 19.182,189.635 18.995 C 189.809 18.808,190.638 17.652,191.476 16.425 L 193.000 14.195 193.000 12.347 L 193.000 10.500 178.000 10.500 L 163.000 10.500 163.000 13.000 M211.424 10.708 C 210.862 12.511,210.578 13.308,210.402 13.583 C 210.285 13.767,209.123 17.104,207.819 21.000 C 204.513 30.882,200.326 43.206,198.365 48.833 C 197.454 51.446,196.657 53.752,196.593 53.958 L 196.478 54.333 199.651 54.333 L 202.824 54.333 205.049 47.542 L 207.275 40.750 214.913 40.750 L 222.551 40.750 224.815 47.542 L 227.078 54.333 230.289 54.333 C 232.963 54.333,233.500 54.293,233.500 54.095 C 233.500 53.773,231.665 48.468,231.468 48.220 C 231.382 48.111,230.838 46.574,230.260 44.803 C 228.291 38.774,221.203 17.918,220.976 17.488 C 220.852 17.252,220.262 15.586,219.667 13.785 L 218.583 10.510 215.036 10.505 C 212.341 10.501,211.474 10.550,211.424 10.708 M229.500 13.083 L 229.500 15.667 236.250 15.667 L 243.000 15.667 243.000 35.000 L 243.000 54.333 245.917 54.333 L 248.833 54.333 248.833 35.000 L 248.833 15.667 255.500 15.667 L 262.167 15.667 262.167 13.083 L 262.167 10.500 245.833 10.500 L 229.500 10.500 229.500 13.083 M267.000 32.417 L 267.000 54.333 269.917 54.333 L 272.833 54.333 272.833 32.417 L 272.833 10.500 269.917 10.500 L 267.000 10.500 267.000 32.417 M314.333 32.417 L 314.333 54.333 317.333 54.333 L 320.333 54.333 320.333 44.083 L 320.333 33.833 330.750 33.833 L 341.167 33.833 341.167 44.083 L 341.167 54.333 344.083 54.333 L 347.000 54.333 347.000 32.417 L 347.000 10.500 344.083 10.500 L 341.167 10.500 341.167 19.583 L 341.167 28.667 330.750 28.667 L 320.333 28.667 320.333 19.583 L 320.333 10.500 317.333 10.500 L 314.333 10.500 314.333 32.417 M9.517 16.417 C 9.956 17.517,10.392 18.543,10.485 18.697 C 11.419 20.235,12.186 25.611,12.287 31.316 L 12.373 36.215 12.924 36.816 C 13.760 37.728,15.091 37.709,15.948 36.774 L 16.538 36.130 16.454 31.024 C 16.338 23.870,15.562 19.436,13.584 14.625 C 13.471 14.349,14.003 14.333,23.409 14.333 C 31.319 14.333,33.328 14.376,33.230 14.542 C 33.162 14.656,32.475 15.712,31.703 16.887 C 23.980 28.648,21.572 48.362,25.925 64.197 C 27.216 68.893,29.869 75.292,31.299 77.160 C 31.881 77.920,32.907 79.508,33.035 79.846 C 33.732 81.689,39.585 87.760,42.583 89.750 C 43.683 90.480,44.784 91.238,45.030 91.435 C 47.944 93.767,58.149 96.213,60.309 95.096 C 61.626 94.415,61.631 92.048,60.318 91.466 C 60.051 91.348,59.833 91.207,59.833 91.151 C 59.833 91.095,59.027 91.006,58.042 90.953 C 53.080 90.686,48.319 88.804,44.000 85.401 C 43.313 84.859,42.466 84.204,42.119 83.945 C 39.400 81.915,34.490 74.621,32.338 69.417 C 31.959 68.500,31.548 67.563,31.425 67.333 C 28.838 62.507,27.305 49.622,28.274 40.833 C 28.814 35.925,30.897 27.167,31.524 27.167 C 31.602 27.167,31.667 27.083,31.667 26.981 C 31.667 25.756,35.302 18.988,37.721 15.708 L 38.735 14.333 59.043 14.333 C 81.453 14.333,80.025 14.263,80.561 15.393 C 80.811 15.920,81.015 33.667,80.771 33.667 C 80.736 33.667,80.277 33.476,79.749 33.243 C 76.253 31.696,70.417 32.098,67.917 34.056 C 67.733 34.200,66.988 34.790,66.261 35.367 C 62.205 38.588,60.203 43.597,60.806 49.018 C 61.090 51.571,62.131 54.631,63.019 55.519 C 63.187 55.687,63.633 56.275,64.008 56.826 C 67.360 61.736,74.913 63.672,80.208 60.978 L 80.833 60.660 80.833 69.754 L 80.833 78.848 80.138 79.799 C 79.755 80.322,78.518 81.696,77.388 82.853 L 75.333 84.957 75.333 85.858 C 75.333 88.361,77.492 88.754,79.732 86.658 L 80.833 85.628 80.833 94.820 C 80.833 104.901,80.833 104.899,79.855 105.406 C 79.410 105.636,77.891 105.667,67.068 105.667 L 54.786 105.667 52.851 105.012 C 49.309 103.814,48.358 103.352,43.495 100.466 C 37.151 96.702,31.578 90.934,27.747 84.167 C 26.710 82.335,26.076 80.936,24.905 77.892 C 23.432 74.063,21.734 70.614,20.840 69.636 C 20.699 69.482,20.436 69.070,20.255 68.720 C 18.858 66.011,14.826 61.132,11.933 58.648 C 11.191 58.011,10.358 57.279,10.083 57.023 C 9.360 56.348,7.658 55.056,5.792 53.765 L 4.167 52.642 4.167 34.248 C 4.167 22.703,4.227 15.696,4.329 15.428 C 4.642 14.606,5.398 14.323,7.151 14.372 L 8.719 14.417 9.517 16.417 M111.381 15.237 C 115.084 16.050,117.002 18.111,117.132 21.417 C 117.326 26.355,113.905 28.732,106.292 28.952 L 102.833 29.051 102.833 22.121 L 102.833 15.191 103.708 15.095 C 104.190 15.043,104.846 14.969,105.167 14.932 C 106.311 14.798,110.269 14.992,111.381 15.237 M216.575 22.417 C 217.367 24.984,220.836 35.133,221.089 35.620 L 221.329 36.083 218.176 36.129 C 216.441 36.153,213.565 36.153,211.784 36.129 L 208.546 36.083 209.458 33.250 C 209.959 31.692,210.424 30.379,210.491 30.333 C 210.801 30.121,213.576 21.292,214.683 17.000 L 214.876 16.250 215.495 18.583 C 215.835 19.867,216.321 21.592,216.575 22.417 M57.411 19.132 C 54.486 20.309,51.839 22.129,49.125 24.831 L 47.333 26.615 47.333 27.618 C 47.333 30.223,49.445 30.585,51.646 28.359 C 53.424 26.562,55.590 24.988,57.826 23.871 C 60.886 22.342,61.463 21.703,61.098 20.250 C 60.729 18.781,59.335 18.358,57.411 19.132 M110.567 33.752 C 111.360 33.890,112.139 34.069,112.297 34.150 C 112.454 34.230,113.231 34.604,114.022 34.979 C 119.503 37.584,120.199 44.980,115.255 48.084 C 112.693 49.694,106.816 50.588,103.354 49.896 L 102.833 49.792 102.833 41.646 L 102.833 33.500 105.978 33.500 C 108.035 33.500,109.622 33.587,110.567 33.752 M42.855 35.257 C 42.578 35.491,42.300 35.847,42.236 36.049 C 42.173 36.251,42.058 36.458,41.980 36.508 C 41.902 36.559,41.616 37.459,41.344 38.508 C 37.229 54.401,45.017 71.085,58.738 75.772 C 61.050 76.562,62.333 75.907,62.333 73.938 C 62.333 72.872,61.794 72.291,60.370 71.822 C 48.369 67.870,41.813 52.914,45.860 38.717 C 46.341 37.029,46.372 36.786,46.187 36.168 C 45.796 34.862,43.930 34.353,42.855 35.257 M77.167 37.005 C 78.291 37.331,79.583 38.054,80.375 38.798 L 80.833 39.229 80.833 47.280 L 80.833 55.331 79.568 56.267 C 76.936 58.213,72.510 58.561,70.592 56.973 C 70.496 56.893,69.921 56.460,69.316 56.010 C 60.356 49.354,66.710 33.973,77.167 37.005 M178.333 65.021 C 175.614 65.114,171.138 65.562,170.792 65.776 C 170.723 65.818,170.667 75.599,170.667 87.510 L 170.667 109.167 173.583 109.167 L 176.500 109.167 176.500 99.643 L 176.500 90.118 179.792 90.214 C 187.207 90.429,188.803 91.999,190.926 101.167 C 191.901 105.380,192.319 106.917,192.861 108.292 L 193.205 109.167 196.287 109.167 C 199.155 109.167,199.361 109.146,199.253 108.875 C 198.387 106.688,197.870 104.864,196.738 100.000 C 194.998 92.529,193.675 90.011,190.703 88.514 L 189.990 88.155 191.537 87.385 C 197.192 84.569,199.466 77.455,196.587 71.583 C 194.011 66.330,189.320 64.644,178.333 65.021 M345.667 65.012 C 342.935 65.114,338.465 65.566,338.125 65.776 C 338.056 65.818,338.000 75.599,338.000 87.510 L 338.000 109.167 340.917 109.167 L 343.833 109.167 343.833 99.643 L 343.833 90.118 347.125 90.214 C 353.586 90.401,355.706 91.960,357.260 97.667 C 357.497 98.537,357.759 99.400,357.841 99.583 C 357.923 99.767,358.264 101.117,358.600 102.583 C 359.241 105.388,359.772 107.278,360.250 108.458 L 360.536 109.167 363.619 109.167 C 366.488 109.167,366.694 109.146,366.587 108.875 C 365.721 106.688,365.204 104.864,364.071 100.000 C 362.304 92.411,361.035 90.032,357.968 88.553 L 357.110 88.139 358.064 87.751 C 367.662 83.850,367.472 69.523,357.778 66.167 C 355.390 65.341,354.149 65.152,349.750 64.945 C 349.200 64.919,347.363 64.950,345.667 65.012 M97.000 87.250 L 97.000 109.167 99.917 109.167 L 102.833 109.167 102.833 99.250 L 102.833 89.333 111.083 89.333 L 119.333 89.333 119.333 86.917 L 119.333 84.500 111.083 84.500 L 102.833 84.500 102.833 77.417 L 102.833 70.333 111.833 70.333 L 120.833 70.333 120.833 67.833 L 120.833 65.333 108.917 65.333 L 97.000 65.333 97.000 87.250 M128.710 80.625 C 128.766 95.717,128.772 95.938,129.137 97.541 C 130.767 104.699,134.286 108.403,140.586 109.590 C 142.708 109.990,147.662 109.856,149.583 109.347 C 154.356 108.083,158.133 104.547,159.761 99.814 C 160.944 96.378,160.893 97.209,160.956 80.458 L 161.013 65.333 158.007 65.333 L 155.000 65.333 155.000 78.732 C 155.000 96.185,154.831 97.695,152.496 101.083 C 148.843 106.384,141.131 106.442,137.154 101.199 C 134.695 97.957,134.619 97.331,134.544 79.875 L 134.482 65.333 131.568 65.333 L 128.654 65.333 128.710 80.625 M205.500 87.250 L 205.500 109.167 208.353 109.167 L 211.206 109.167 211.104 93.042 C 211.048 84.173,210.962 76.092,210.914 75.083 L 210.826 73.250 211.261 74.083 C 212.964 77.344,215.015 81.139,215.720 82.333 C 217.461 85.281,220.830 90.623,221.077 90.828 C 221.218 90.945,221.333 91.109,221.333 91.193 C 221.333 91.276,222.734 93.573,224.447 96.297 C 226.159 99.021,228.144 102.225,228.857 103.417 C 229.571 104.608,230.460 106.033,230.833 106.583 C 231.206 107.133,231.745 107.940,232.031 108.375 L 232.550 109.167 235.525 109.167 L 238.500 109.167 238.500 87.250 L 238.500 65.333 235.750 65.333 L 233.000 65.333 233.003 77.708 C 233.005 88.790,233.117 94.478,233.421 99.083 L 233.520 100.583 232.597 98.854 C 232.089 97.903,231.600 97.037,231.510 96.928 C 231.358 96.745,230.409 95.064,228.255 91.160 C 227.773 90.285,225.968 87.360,224.245 84.660 C 217.433 73.982,213.869 68.348,212.996 66.878 L 212.083 65.339 208.792 65.336 L 205.500 65.333 205.500 87.250 M248.167 87.250 L 248.167 109.167 251.167 109.167 L 254.167 109.167 254.167 87.250 L 254.167 65.333 251.167 65.333 L 248.167 65.333 248.167 87.250 M258.667 67.917 L 258.667 70.500 265.333 70.500 L 272.000 70.500 272.000 89.833 L 272.000 109.167 275.000 109.167 L 278.000 109.167 278.000 89.833 L 278.000 70.500 284.667 70.500 L 291.333 70.500 291.333 67.917 L 291.333 65.333 275.000 65.333 L 258.667 65.333 258.667 67.917 M296.044 80.625 C 296.110 98.489,296.096 98.354,298.274 102.728 C 303.058 112.337,320.644 112.405,325.583 102.833 C 325.937 102.146,326.320 101.491,326.433 101.378 C 326.685 101.125,327.549 98.521,327.941 96.833 C 328.203 95.705,328.237 94.117,328.289 80.458 L 328.347 65.333 325.340 65.333 L 322.333 65.333 322.333 78.732 C 322.333 96.185,322.164 97.695,319.829 101.083 C 315.754 106.997,306.687 106.191,303.516 99.634 C 301.942 96.381,301.840 95.113,301.836 78.792 L 301.833 65.333 298.910 65.333 L 295.987 65.333 296.044 80.625 M372.833 87.250 L 372.833 109.167 385.250 109.167 L 397.667 109.167 397.667 106.750 L 397.667 104.333 388.167 104.333 L 378.667 104.333 378.667 96.500 L 378.667 88.667 387.167 88.667 L 395.667 88.667 395.667 86.250 L 395.667 83.833 387.167 83.833 L 378.667 83.833 378.667 77.083 L 378.667 70.333 387.667 70.333 L 396.667 70.333 396.667 67.833 L 396.667 65.333 384.750 65.333 L 372.833 65.333 372.833 87.250 M183.939 69.847 C 189.079 70.562,191.835 73.192,191.850 77.396 C 191.869 83.098,188.240 85.657,180.125 85.664 L 176.500 85.667 176.500 77.930 L 176.500 70.193 177.042 70.074 C 178.728 69.702,182.099 69.591,183.939 69.847 M352.917 70.159 C 361.747 72.449,361.261 83.505,352.245 85.415 C 351.427 85.588,350.010 85.662,347.458 85.664 L 343.833 85.667 343.833 77.930 L 343.833 70.193 344.362 70.077 C 346.608 69.584,350.855 69.624,352.917 70.159 M0.567 71.900 C -0.540 73.007,-0.044 74.894,1.471 75.342 C 3.235 75.864,4.768 73.980,3.918 72.335 C 3.300 71.141,1.553 70.914,0.567 71.900 M66.237 73.024 C 65.115 73.569,65.016 75.869,66.085 76.569 C 67.948 77.790,70.262 75.791,69.251 73.835 C 68.770 72.906,67.297 72.509,66.237 73.024 " stroke="none" fill="#040404" fill-rule="evenodd"></path><path id="path1" d="" stroke="none" fill="#080404" fill-rule="evenodd"></path><path id="path2" d="" stroke="none" fill="#080404" fill-rule="evenodd"></path><path id="path3" d="" stroke="none" fill="#080404" fill-rule="evenodd"></path><path id="path4" d="" stroke="none" fill="#080404" fill-rule="evenodd"></path></g></svg>