<?xml version="1.0" standalone="no"?>
<!DOCTYPE svg PUBLIC "-//W3C//DTD SVG 20010904//EN"
 "http://www.w3.org/TR/2001/REC-SVG-20010904/DTD/svg10.dtd">
<svg version="1.0" xmlns="http://www.w3.org/2000/svg"
 width="1639.000000pt" height="1639.000000pt" viewBox="0 0 1639.000000 1639.000000"
 preserveAspectRatio="xMidYMid meet">

<g transform="translate(0.000000,1639.000000) scale(0.100000,-0.100000)"
fill="#000000" stroke="none">
<path d="M7935 16384 c-633 -27 -1203 -109 -1770 -254 -2413 -617 -4410 -2296
-5438 -4570 -401 -888 -634 -1825 -708 -2845 -16 -219 -16 -821 0 -1040 36
-499 111 -987 224 -1445 l33 -135 2519 -5 c2516 -5 2520 -5 2576 -26 155 -57
262 -164 322 -322 l22 -57 3 -2650 2 -2650 145 -43 c458 -135 946 -234 1420
-287 353 -39 538 -49 910 -49 372 0 557 10 910 49 2870 318 5364 2134 6558
4775 456 1011 692 2061 723 3228 l7 262 -2464 0 c-2195 0 -2471 2 -2524 16
-95 24 -165 64 -236 134 -67 66 -94 109 -133 210 -20 54 -21 65 -24 1065 -2
556 0 1033 3 1062 7 57 34 104 78 137 22 16 43 21 91 21 53 0 68 -4 99 -28 20
-15 42 -38 49 -50 10 -17 14 -251 18 -1068 l5 -1045 25 -37 c14 -21 43 -46 66
-57 39 -19 59 -20 519 -18 l478 3 -60 75 c-295 373 -475 874 -477 1332 -1 152
5 168 74 216 69 46 185 19 231 -54 19 -31 23 -57 30 -163 17 -302 73 -525 195
-776 95 -196 177 -314 362 -517 l107 -118 950 0 950 0 -55 31 c-551 310 -986
685 -1347 1160 -242 319 -420 645 -603 1104 -279 698 -657 1220 -1201 1656
-93 75 -235 179 -244 179 -2 0 -6 -186 -7 -412 l-3 -413 -24 -34 c-28 -39 -91
-71 -141 -71 -42 0 -105 34 -133 71 -10 15 -23 46 -28 70 -4 24 -8 909 -9
1965 l0 1922 -112 40 c-652 231 -1381 382 -2110 437 -195 14 -697 26 -853 19z
m-3839 -2915 c505 -49 879 -203 1121 -463 201 -216 307 -486 333 -855 24 -335
-43 -607 -213 -861 -27 -41 -98 -122 -156 -180 -139 -138 -279 -230 -473 -310
l-88 -37 57 -13 c104 -23 286 -91 396 -147 368 -188 578 -483 637 -893 16
-106 13 -377 -4 -495 -98 -682 -547 -1138 -1266 -1284 -217 -44 -276 -46
-1300 -46 l-975 0 -3 2798 -2 2797 913 0 c568 0 955 -4 1023 -11z m7175 -1882
c18 -12 44 -38 57 -57 20 -29 23 -44 20 -93 -7 -94 -71 -157 -160 -157 -133 0
-212 134 -148 248 44 79 158 108 231 59z m-973 -844 l-3 -198 -31 -60 c-17
-34 -742 -1061 -1612 -2283 -870 -1222 -1582 -2224 -1582 -2227 0 -3 716 -5
1590 -5 l1590 0 0 -315 0 -315 -2092 2 -2093 3 0 190 c0 173 2 195 23 245 14
35 600 867 1615 2295 l1593 2240 -1543 3 -1543 2 0 310 0 310 2046 0 2046 0
-4 -197z m4292 -3413 l0 -310 -1345 0 -1345 0 0 -975 0 -975 1150 0 1150 0 0
-310 0 -310 -1147 -2 -1148 -3 -3 -1202 -2 -1203 -380 0 -380 0 0 2800 0 2800
1725 0 1725 0 0 -310z"/>
<path d="M2850 11930 l0 -951 568 4 c623 4 647 6 835 68 390 130 593 404 614
829 10 210 -25 400 -103 560 -89 179 -256 310 -479 375 -193 56 -224 58 -852
62 l-583 5 0 -952z"/>
<path d="M2850 9460 l0 -972 648 5 c404 3 671 9 712 16 301 51 516 171 662
368 183 249 228 725 97 1027 -95 217 -268 371 -507 452 -196 67 -206 67 -944
71 l-668 4 0 -971z"/>
<path d="M11350 14478 l1 -1273 177 -122 c398 -274 721 -578 989 -930 258
-339 424 -639 608 -1098 106 -264 206 -472 310 -646 379 -632 925 -1142 1573
-1468 172 -87 304 -143 516 -220 l168 -61 340 0 341 0 -7 113 c-13 219 -80
751 -111 885 -6 23 -6 23 -28 -10 -12 -18 -42 -44 -67 -56 -42 -22 -53 -23
-167 -18 -745 34 -1428 413 -1969 1093 -541 678 -875 1586 -955 2593 -16 210
-14 680 5 890 14 154 53 447 72 536 6 30 3 34 -113 119 -113 83 -415 286 -555
373 l-68 42 0 -283 c0 -278 0 -285 -22 -317 -40 -58 -72 -75 -143 -75 -70 0
-103 17 -141 73 -20 29 -21 47 -27 394 -4 199 -10 373 -13 386 -5 18 -45 43
-175 108 -167 83 -473 225 -516 238 l-23 7 0 -1273z"/>
<path d="M13446 14428 c-90 -619 -65 -1266 70 -1878 132 -596 390 -1170 721
-1607 484 -639 1098 -997 1763 -1030 122 -6 162 -16 202 -50 15 -13 14 -5 -4
79 -60 283 -175 688 -275 968 -57 160 -168 447 -181 466 -4 5 -43 32 -87 58
-217 131 -422 313 -602 537 -198 244 -386 621 -477 954 -40 146 -86 403 -86
478 0 27 -14 50 -76 123 -128 149 -355 392 -480 514 -170 164 -464 430 -477
430 -2 0 -8 -19 -11 -42z"/>
<path d="M14980 12778 c0 -14 74 -178 116 -257 58 -111 163 -269 236 -358 95
-116 91 -105 -51 139 -109 188 -301 492 -301 476z"/>
<path d="M380 5742 c0 -13 84 -259 145 -422 58 -155 176 -439 233 -558 l30
-62 37 97 c118 306 278 614 457 881 l49 72 -476 0 c-261 0 -475 -4 -475 -8z"/>
<path d="M1673 5643 c-261 -346 -453 -718 -604 -1175 -32 -98 -59 -185 -59
-194 0 -18 133 -251 248 -434 166 -264 333 -500 536 -755 l111 -139 2 59 c10
258 57 526 135 778 43 141 89 187 186 187 87 0 162 -73 162 -157 0 -24 -16
-99 -35 -166 -45 -152 -80 -328 -96 -475 -13 -124 -7 -524 10 -602 8 -39 25
-60 158 -190 651 -640 1341 -1132 2138 -1525 263 -130 449 -212 678 -300 l137
-53 0 640 0 639 -22 -7 c-13 -3 -43 -17 -68 -29 -201 -100 -491 -126 -727 -66
-544 139 -921 674 -900 1276 7 214 53 395 143 570 67 131 118 200 228 311 184
185 375 287 616 329 219 38 483 -1 683 -101 l47 -24 0 788 0 788 -22 44 c-15
30 -37 53 -63 67 l-40 23 -1750 0 -1750 0 -82 -107z m1869 -303 c104 -29 157
-142 112 -237 -22 -45 -62 -73 -160 -112 -199 -79 -395 -214 -594 -409 -103
-101 -156 -146 -182 -153 -102 -32 -212 52 -212 160 1 62 18 91 120 199 178
190 402 354 634 466 124 59 210 94 235 95 6 1 27 -4 47 -9z"/>
<path d="M4674 3826 c-145 -33 -263 -98 -377 -206 -190 -179 -282 -387 -294
-657 -9 -199 19 -338 99 -497 56 -113 91 -160 183 -251 289 -285 711 -309
1038 -58 l57 44 0 712 -1 712 -52 42 c-69 54 -185 116 -272 143 -90 28 -290
37 -381 16z"/>
</g>
</svg>
