<svg id="svg" version="1.1" xmlns="http://www.w3.org/2000/svg" xmlns:xlink="http://www.w3.org/1999/xlink" width="400" height="400" viewBox="0, 0, 400,400"><g id="svgg"><path id="path0" d="M268.944 59.924 L 269.067 107.835 269.577 108.524 C 271.332 110.892,274.450 110.967,276.192 108.683 L 276.876 107.787 276.998 97.717 L 277.120 87.647 279.195 89.133 C 294.358 99.998,305.264 114.293,312.657 132.996 C 322.204 157.147,337.697 175.350,358.572 186.943 C 360.143 187.816,361.431 188.612,361.434 188.713 C 361.437 188.813,351.032 188.896,338.310 188.896 L 315.181 188.896 313.339 187.004 C 303.873 177.281,299.375 167.285,298.596 154.240 C 298.355 150.216,297.548 148.875,295.136 148.489 C 291.733 147.945,290.344 150.131,290.674 155.515 C 291.389 167.210,295.286 177.640,302.289 186.608 C 303.144 187.704,303.844 188.671,303.844 188.759 C 303.844 188.846,298.490 188.885,291.946 188.846 C 279.034 188.768,279.363 188.802,278.052 187.394 C 276.991 186.254,276.998 186.447,276.997 160.753 C 276.995 134.148,277.024 134.730,275.653 133.526 C 273.546 131.677,270.639 132.184,269.436 134.610 C 268.770 135.955,268.663 184.620,269.320 187.409 C 270.308 191.599,273.417 194.910,277.608 196.236 C 279.030 196.685,280.837 196.699,339.536 196.702 L 400.000 196.705 400.000 193.811 C 400.000 192.219,399.934 190.434,399.853 189.845 L 399.707 188.774 391.637 188.841 C 383.910 188.906,383.500 188.886,381.961 188.378 C 351.999 178.483,331.979 159.627,320.195 130.201 C 311.287 107.956,299.558 93.252,280.110 79.946 L 276.998 77.817 276.998 46.517 L 276.998 15.217 274.131 14.087 C 272.553 13.465,270.714 12.745,270.043 12.485 L 268.822 12.014 268.944 59.924 M294.598 24.727 C 294.697 25.422,294.786 29.553,294.796 33.907 C 294.818 43.848,295.239 45.010,298.819 45.010 C 302.304 45.010,302.716 44.025,302.868 35.335 L 302.990 28.327 299.695 26.453 C 297.883 25.423,295.954 24.328,295.409 24.021 L 294.418 23.462 294.598 24.727 M320.827 40.484 C 321.020 40.696,320.944 41.660,320.549 44.000 C 310.160 105.624,345.142 166.160,391.165 166.197 C 394.243 166.199,396.339 165.148,396.339 163.603 C 396.339 163.389,396.456 163.314,396.625 163.418 C 396.812 163.534,396.861 163.465,396.766 163.219 C 396.687 163.013,396.545 162.329,396.451 161.698 C 396.070 159.159,394.822 158.462,390.083 158.143 C 357.645 155.957,332.245 123.738,327.267 78.462 C 326.378 70.375,326.980 50.817,328.234 47.067 C 328.432 46.475,328.327 46.324,326.946 45.223 C 323.463 42.446,320.579 40.212,320.827 40.484 M63.320 53.752 L 62.355 54.790 63.392 53.825 C 64.357 52.928,64.542 52.715,64.357 52.715 C 64.317 52.715,63.850 53.182,63.320 53.752 M336.425 53.691 C 336.949 54.228,337.433 54.667,337.500 54.667 C 337.567 54.667,337.193 54.228,336.669 53.691 C 336.144 53.154,335.661 52.715,335.593 52.715 C 335.526 52.715,335.900 53.154,336.425 53.691 M53.558 63.514 L 52.593 64.552 53.630 63.587 C 54.201 63.056,54.667 62.589,54.667 62.550 C 54.667 62.365,54.455 62.550,53.558 63.514 M346.187 63.453 C 346.711 63.990,347.195 64.430,347.262 64.430 C 347.329 64.430,346.955 63.990,346.431 63.453 C 345.906 62.916,345.423 62.477,345.355 62.477 C 345.288 62.477,345.662 62.916,346.187 63.453 M52.959 139.231 L 52.959 207.444 76.205 207.443 C 100.083 207.442,102.844 207.354,107.749 206.443 C 128.239 202.636,140.285 187.696,139.508 167.053 C 138.919 151.408,130.861 142.240,113.620 137.595 L 112.414 137.271 114.230 136.573 C 127.689 131.406,135.448 120.312,135.448 106.237 C 135.448 87.071,124.814 75.235,104.697 72.013 C 99.467 71.175,94.558 71.019,73.403 71.019 L 52.959 71.019 52.959 139.231 M353.454 71.635 C 353.530 71.773,353.767 73.255,353.981 74.930 C 356.385 93.692,366.123 110.307,380.110 119.509 C 381.452 120.392,383.006 121.420,383.564 121.793 L 384.578 122.470 383.494 119.991 C 381.790 116.089,376.741 105.918,376.508 105.918 C 376.393 105.918,376.377 105.791,376.472 105.636 C 376.578 105.466,376.540 105.421,376.376 105.522 C 375.156 106.276,364.597 89.006,365.160 87.176 C 365.252 86.879,360.448 80.205,357.022 75.867 C 354.285 72.403,353.114 71.014,353.454 71.635 M101.471 86.334 C 112.876 88.918,118.063 94.800,118.820 106.008 C 119.812 120.701,112.780 129.412,97.987 131.814 C 96.934 131.985,91.146 132.136,82.916 132.208 L 69.555 132.324 69.555 108.978 L 69.555 85.631 84.381 85.726 C 98.371 85.816,99.334 85.850,101.471 86.334 M271.132 117.206 C 270.336 117.607,269.895 118.048,269.494 118.844 C 267.707 122.387,271.322 125.993,274.811 124.148 C 279.414 121.714,275.782 114.861,271.132 117.206 M151.556 140.451 L 151.556 147.895 189.262 147.895 C 210.099 147.895,226.968 147.989,226.968 148.105 C 226.968 148.220,209.561 172.793,188.286 202.711 C 167.011 232.629,149.302 257.712,148.933 258.450 C 148.279 259.758,148.259 259.918,148.182 264.613 L 148.102 269.433 199.128 269.433 L 250.153 269.433 250.153 261.989 L 250.153 254.545 211.200 254.545 C 180.138 254.545,172.272 254.484,172.366 254.240 C 172.432 254.073,189.648 229.829,210.625 200.366 C 231.603 170.903,249.114 146.248,249.539 145.577 C 251.096 143.120,251.217 142.575,251.322 137.584 L 251.419 133.008 201.487 133.008 L 151.556 133.008 151.556 140.451 M104.124 145.903 C 116.602 148.244,123.277 156.084,123.238 168.352 C 123.202 179.762,118.182 187.517,108.603 190.958 C 103.905 192.645,103.818 192.652,85.845 192.743 L 69.555 192.826 69.555 168.997 L 69.555 145.168 85.479 145.280 C 100.331 145.385,101.587 145.427,104.124 145.903 M399.813 209.152 C 399.813 209.622,399.863 209.814,399.924 209.579 C 399.986 209.344,399.986 208.960,399.924 208.725 C 399.863 208.490,399.813 208.682,399.813 209.152 M271.873 281.757 L 271.873 349.969 281.147 349.969 L 290.421 349.969 290.421 320.683 L 290.421 291.397 318.365 291.397 L 346.309 291.397 346.309 283.954 L 346.309 276.510 318.365 276.510 L 290.421 276.510 290.421 252.593 L 290.421 228.676 323.124 228.676 L 355.827 228.676 355.827 221.110 L 355.827 213.545 313.850 213.545 L 271.873 213.545 271.873 281.757 M6.695 251.861 C 6.750 252.062,7.261 253.874,7.831 255.888 L 8.866 259.549 20.663 259.483 C 29.051 259.436,32.459 259.494,32.459 259.683 C 32.459 259.829,31.978 260.628,31.391 261.457 C 28.126 266.070,23.428 275.011,20.898 281.426 C 20.139 283.353,19.422 285.095,19.306 285.296 C 19.157 285.553,19.853 287.171,21.642 290.731 C 23.874 295.172,24.649 296.329,24.649 295.217 C 24.649 294.668,27.044 287.615,28.294 284.481 C 31.633 276.111,36.522 267.482,41.349 261.437 L 42.958 259.421 85.604 259.485 L 128.249 259.549 129.257 260.126 C 131.436 261.375,131.300 259.917,131.300 282.000 C 131.300 297.475,131.237 301.427,130.995 301.318 C 113.030 293.245,95.164 301.884,90.444 320.927 C 84.301 345.714,108.060 367.796,129.402 357.135 C 130.305 356.684,131.103 356.315,131.175 356.315 C 131.247 356.315,131.278 363.442,131.242 372.154 L 131.178 387.993 134.960 389.278 C 137.041 389.985,138.880 390.612,139.048 390.671 C 139.643 390.880,139.477 262.421,138.880 260.333 C 137.842 256.702,135.156 253.740,131.598 252.303 L 130.201 251.739 68.398 251.617 C 13.541 251.509,6.606 251.536,6.695 251.861 M82.611 270.503 C 72.834 274.533,61.257 284.015,61.257 287.992 C 61.257 290.716,64.150 292.629,66.764 291.635 C 67.126 291.497,68.753 290.032,70.380 288.378 C 74.988 283.692,79.992 280.238,85.296 278.081 C 89.227 276.482,90.431 274.186,88.779 271.438 C 87.662 269.581,85.605 269.269,82.611 270.503 M52.570 303.576 C 51.255 304.173,50.740 305.065,49.669 308.603 C 48.086 313.827,47.295 318.580,46.712 326.369 C 46.584 328.089,46.531 328.242,46.170 327.956 C 45.559 327.471,51.441 334.213,53.559 336.425 C 55.054 337.985,55.402 338.249,55.296 337.741 C 53.836 330.734,54.873 318.765,57.732 309.627 C 59.165 305.050,56.417 301.829,52.570 303.576 M122.995 306.779 C 125.228 307.408,128.024 308.839,129.896 310.312 L 131.300 311.417 131.290 328.924 L 131.281 346.431 130.193 347.285 C 116.791 357.809,98.489 348.251,97.455 330.186 C 96.588 315.060,109.707 303.037,122.995 306.779 M346.175 336.608 L 345.210 337.645 346.248 336.680 C 347.212 335.783,347.397 335.570,347.212 335.570 C 347.173 335.570,346.706 336.037,346.175 336.608 M63.331 346.309 C 63.856 346.846,64.339 347.285,64.407 347.285 C 64.474 347.285,64.100 346.846,63.575 346.309 C 63.051 345.772,62.567 345.333,62.500 345.333 C 62.433 345.333,62.807 345.772,63.331 346.309 M336.413 346.370 L 335.448 347.407 336.486 346.442 C 337.056 345.912,337.523 345.445,337.523 345.405 C 337.523 345.220,337.310 345.405,336.413 346.370 " stroke="none" fill="#fafbfa" fill-rule="evenodd"></path><path id="path1" d="M192.678 0.258 C 65.144 4.973,-25.675 127.097,6.613 250.458 L 6.852 251.373 67.804 251.373 C 120.998 251.373,128.934 251.419,130.152 251.736 C 134.397 252.842,137.506 255.771,139.068 260.134 C 139.436 261.162,139.481 266.702,139.595 325.922 L 139.719 390.587 142.770 391.509 C 256.877 425.997,376.638 351.789,396.939 234.018 C 398.847 222.944,400.660 200.590,399.897 197.547 L 399.747 196.949 339.791 196.949 C 285.444 196.949,279.686 196.913,278.234 196.556 C 273.986 195.511,270.766 192.466,269.272 188.082 C 268.749 186.549,268.446 137.301,268.947 135.439 C 270.118 131.092,276.162 131.308,277.015 135.727 C 277.128 136.312,277.226 147.806,277.232 161.269 C 277.243 188.102,277.151 186.451,278.705 187.759 C 279.785 188.667,279.932 188.676,292.307 188.600 L 303.589 188.530 302.349 186.943 C 295.913 178.703,292.127 169.536,290.784 158.942 C 289.869 151.720,290.590 149.088,293.674 148.393 C 296.850 147.676,298.468 149.529,298.760 154.222 C 299.582 167.395,303.869 176.946,313.420 186.882 L 315.121 188.652 338.219 188.650 L 361.318 188.648 358.635 187.157 C 337.718 175.530,322.135 157.345,312.759 133.618 C 305.370 114.919,295.264 101.357,280.415 90.212 C 278.871 89.053,277.533 88.105,277.440 88.104 C 277.348 88.103,277.238 92.468,277.196 97.804 C 277.112 108.600,277.142 108.398,275.411 109.719 C 273.129 111.459,269.742 110.268,268.959 107.450 C 268.785 106.822,268.703 91.530,268.702 59.391 L 268.700 12.253 263.148 10.413 C 244.179 4.126,226.835 1.012,206.525 0.246 C 199.747 -0.009,199.908 -0.009,192.678 0.258 M277.242 46.728 L 277.242 77.820 280.354 79.941 C 299.519 93.006,311.648 108.222,320.296 130.050 C 331.634 158.667,350.876 177.226,379.819 187.460 L 383.189 188.652 391.350 188.652 L 399.512 188.652 399.511 187.858 C 399.505 184.259,397.700 169.294,396.683 164.424 L 396.542 163.747 396.014 164.524 C 394.688 166.471,391.311 166.867,384.643 165.859 C 340.363 159.163,310.496 102.321,320.448 43.685 C 320.900 41.020,320.903 40.862,320.499 40.553 C 316.209 37.268,303.664 28.799,303.085 28.798 C 303.033 28.798,303.025 31.296,303.068 34.350 C 303.194 43.363,302.495 45.149,298.841 45.149 C 295.098 45.149,294.584 43.689,294.576 33.038 C 294.572 28.726,294.501 24.856,294.418 24.438 C 294.263 23.665,288.229 20.425,281.391 17.444 C 280.250 16.946,278.850 16.336,278.279 16.088 L 277.242 15.637 277.242 46.728 M328.021 49.121 C 320.894 104.315,349.482 155.034,389.353 157.934 C 394.012 158.273,394.268 158.320,395.079 159.003 L 395.786 159.598 394.987 156.126 C 391.752 142.074,385.202 122.582,383.450 121.795 C 381.973 121.131,377.255 117.784,374.741 115.616 C 363.261 105.717,354.963 89.276,353.711 73.948 C 353.540 71.852,353.719 72.113,348.390 66.145 C 343.266 60.406,332.094 49.592,328.951 47.330 L 328.311 46.869 328.021 49.121 M100.202 71.277 C 119.913 73.183,131.502 81.917,134.681 97.262 C 138.438 115.399,130.787 130.300,114.454 136.655 L 112.742 137.321 114.150 137.632 C 129.434 141.002,138.481 150.930,139.594 165.557 C 141.154 186.053,129.452 201.882,109.512 206.253 C 103.862 207.491,103.490 207.507,77.303 207.618 L 52.715 207.723 52.715 139.371 L 52.715 71.019 75.125 71.019 C 89.019 71.019,98.549 71.117,100.202 71.277 M69.799 108.863 L 69.799 132.065 83.405 131.969 C 99.351 131.858,100.739 131.696,106.284 129.292 C 117.530 124.416,122.300 109.661,116.654 97.210 C 112.415 87.861,105.829 85.663,82.062 85.662 L 69.799 85.662 69.799 108.863 M365.833 88.737 C 365.833 90.119,371.422 99.709,374.312 103.287 C 375.861 105.203,376.096 105.355,375.267 103.905 C 374.941 103.334,373.985 101.660,373.142 100.183 C 370.403 95.383,365.833 88.226,365.833 88.737 M275.078 117.200 C 277.662 118.629,277.621 122.745,275.009 124.214 C 272.203 125.790,268.875 123.886,268.875 120.704 C 268.875 117.348,272.076 115.539,275.078 117.200 M251.568 135.937 C 251.669 140.195,251.330 142.517,250.321 144.478 C 249.871 145.351,232.181 170.390,211.008 200.122 L 172.511 254.179 211.332 254.241 L 250.153 254.303 250.153 261.990 L 250.153 269.677 199.005 269.677 L 147.858 269.677 147.938 264.857 C 148.014 260.242,148.045 259.978,148.660 258.664 C 149.014 257.910,166.723 232.788,188.014 202.839 C 209.304 172.889,226.724 148.330,226.724 148.262 C 226.724 148.194,209.811 148.139,189.140 148.139 L 151.556 148.139 151.556 140.451 L 151.556 132.763 201.525 132.824 L 251.495 132.886 251.568 135.937 M69.799 169.149 L 69.799 192.844 85.235 192.732 C 103.209 192.602,104.833 192.439,109.878 190.258 C 126.735 182.970,128.019 156.439,111.897 148.554 C 106.186 145.761,103.518 145.459,84.503 145.457 L 69.799 145.455 69.799 169.149 M356.071 221.110 L 356.071 228.676 323.368 228.676 L 290.665 228.676 290.665 252.471 L 290.665 276.266 318.612 276.266 L 346.560 276.266 346.495 283.893 L 346.431 291.519 318.548 291.581 L 290.665 291.643 290.665 320.928 L 290.665 350.214 281.269 350.214 L 271.873 350.214 271.873 281.879 L 271.873 213.545 313.972 213.545 L 356.071 213.545 356.071 221.110 M9.274 259.766 C 9.274 261.514,18.800 285.442,19.273 284.882 C 19.364 284.774,20.021 283.203,20.733 281.391 C 23.220 275.060,26.623 268.474,30.418 262.648 C 31.406 261.131,32.215 259.841,32.215 259.780 C 32.215 259.720,27.053 259.671,20.744 259.671 C 14.436 259.671,9.274 259.713,9.274 259.766 M40.603 262.667 C 33.932 271.600,29.078 281.352,25.363 293.286 L 24.585 295.785 26.120 298.533 C 30.769 306.860,37.428 316.688,43.900 324.777 L 46.492 328.016 46.547 326.363 C 46.769 319.680,48.922 308.656,50.670 305.255 C 52.120 302.433,56.191 302.226,57.798 304.893 C 58.674 306.346,58.649 307.147,57.623 310.562 C 55.470 317.730,54.784 322.980,55.011 330.567 C 55.252 338.648,54.825 337.504,59.223 341.846 C 78.800 361.169,101.256 375.839,126.748 385.956 C 128.961 386.835,130.891 387.553,131.036 387.553 C 131.222 387.553,131.300 382.991,131.300 372.056 C 131.300 363.533,131.241 356.559,131.169 356.559 C 131.098 356.559,130.466 356.849,129.766 357.204 C 111.737 366.342,90.275 352.051,89.398 330.323 C 88.460 307.093,110.676 290.961,130.070 300.789 L 131.311 301.417 131.244 281.947 L 131.178 262.477 130.619 261.579 C 129.321 259.491,133.568 259.670,85.402 259.677 L 42.831 259.683 40.603 262.667 M87.772 270.224 C 90.857 272.338,90.016 276.300,86.149 277.872 C 80.170 280.301,75.402 283.529,70.607 288.392 C 66.388 292.672,64.312 293.236,62.167 290.687 C 60.066 288.190,60.574 286.683,65.024 282.218 C 73.567 273.647,84.419 267.926,87.772 270.224 M115.192 306.430 C 99.608 309.237,92.378 328.816,101.801 342.695 C 108.369 352.369,121.198 354.375,130.139 347.126 L 131.298 346.187 131.299 328.939 L 131.300 311.691 130.156 310.714 C 126.395 307.499,119.775 305.604,115.192 306.430 " stroke="none" fill="#047c64" fill-rule="evenodd"></path><path id="path2" d="M194.082 0.168 C 194.317 0.230,194.701 0.230,194.936 0.168 C 195.171 0.107,194.979 0.057,194.509 0.057 C 194.039 0.057,193.847 0.107,194.082 0.168 M205.064 0.168 C 205.299 0.230,205.683 0.230,205.918 0.168 C 206.153 0.107,205.961 0.057,205.491 0.057 C 205.021 0.057,204.829 0.107,205.064 0.168 M268.820 59.304 C 268.820 85.278,268.849 95.903,268.883 82.916 C 268.918 69.930,268.918 48.679,268.883 35.692 C 268.849 22.706,268.820 33.331,268.820 59.304 M294.626 28.798 C 294.626 29.268,294.677 29.460,294.738 29.225 C 294.799 28.990,294.799 28.606,294.738 28.371 C 294.677 28.136,294.626 28.328,294.626 28.798 M63.072 54.240 L 62.355 55.034 63.148 54.317 C 63.888 53.649,64.054 53.447,63.865 53.447 C 63.823 53.447,63.466 53.804,63.072 54.240 M336.059 53.524 C 336.059 53.566,336.415 53.923,336.852 54.317 L 337.645 55.034 336.928 54.240 C 336.260 53.501,336.059 53.335,336.059 53.524 M54.042 63.270 L 53.325 64.063 54.118 63.347 C 54.858 62.678,55.024 62.477,54.835 62.477 C 54.793 62.477,54.436 62.834,54.042 63.270 M345.088 62.553 C 345.088 62.595,345.445 62.952,345.882 63.347 L 346.675 64.063 345.958 63.270 C 345.290 62.531,345.088 62.365,345.088 62.553 M318.567 66.260 C 318.568 67.200,318.612 67.554,318.665 67.048 C 318.718 66.541,318.717 65.773,318.663 65.339 C 318.609 64.906,318.566 65.320,318.567 66.260 M52.836 139.231 L 52.837 207.566 74.924 207.568 L 97.010 207.569 74.985 207.505 L 52.960 207.441 52.898 139.169 L 52.836 70.897 52.836 139.231 M295.180 92.007 C 295.704 92.544,296.188 92.984,296.255 92.984 C 296.322 92.984,295.948 92.544,295.424 92.007 C 294.900 91.470,294.416 91.031,294.349 91.031 C 294.282 91.031,294.656 91.470,295.180 92.007 M135.522 106.650 C 135.522 107.389,135.567 107.691,135.623 107.322 C 135.679 106.952,135.679 106.348,135.623 105.979 C 135.567 105.610,135.522 105.912,135.522 106.650 M268.818 160.586 C 268.818 173.941,268.847 179.405,268.883 172.727 C 268.920 166.049,268.920 155.122,268.883 148.444 C 268.847 141.766,268.818 147.230,268.818 160.586 M349.725 147.971 C 349.725 148.013,350.082 148.370,350.519 148.765 L 351.312 149.481 350.595 148.688 C 349.927 147.949,349.725 147.783,349.725 147.971 M337.401 171.324 C 338.062 171.995,338.658 172.544,338.725 172.544 C 338.792 172.544,338.306 171.995,337.645 171.324 C 336.984 170.653,336.388 170.104,336.321 170.104 C 336.254 170.104,336.740 170.653,337.401 171.324 M0.057 194.509 C 0.057 194.979,0.107 195.171,0.168 194.936 C 0.230 194.701,0.230 194.317,0.168 194.082 C 0.107 193.847,0.057 194.039,0.057 194.509 M0.057 205.491 C 0.057 205.961,0.107 206.153,0.168 205.918 C 0.230 205.683,0.230 205.299,0.168 205.064 C 0.107 204.829,0.057 205.021,0.057 205.491 M399.813 205.491 C 399.813 205.961,399.863 206.153,399.924 205.918 C 399.986 205.683,399.986 205.299,399.924 205.064 C 399.863 204.829,399.813 205.021,399.813 205.491 M173.581 269.616 C 187.642 269.650,210.650 269.650,224.710 269.616 C 238.771 269.581,227.267 269.552,199.146 269.552 C 171.025 269.552,159.521 269.581,173.581 269.616 M104.561 311.714 L 103.844 312.508 104.637 311.791 C 105.376 311.123,105.542 310.921,105.354 310.921 C 105.312 310.921,104.955 311.278,104.561 311.714 M54.746 328.737 C 54.746 329.610,54.790 329.966,54.844 329.530 C 54.898 329.094,54.898 328.380,54.844 327.944 C 54.790 327.508,54.746 327.865,54.746 328.737 M97.438 328.859 C 97.441 329.396,97.491 329.587,97.549 329.283 C 97.607 328.980,97.605 328.540,97.544 328.307 C 97.483 328.074,97.435 328.322,97.438 328.859 M345.683 336.852 L 344.966 337.645 345.760 336.928 C 346.499 336.260,346.665 336.059,346.476 336.059 C 346.434 336.059,346.077 336.415,345.683 336.852 M62.477 345.165 C 62.477 345.207,62.834 345.564,63.270 345.958 L 64.063 346.675 63.347 345.882 C 62.678 345.142,62.477 344.976,62.477 345.165 M336.653 345.882 L 335.937 346.675 336.730 345.958 C 337.469 345.290,337.635 345.088,337.447 345.088 C 337.405 345.088,337.048 345.445,336.653 345.882 M98.475 351.678 C 99.136 352.349,99.731 352.898,99.799 352.898 C 99.866 352.898,99.380 352.349,98.719 351.678 C 98.058 351.007,97.462 350.458,97.395 350.458 C 97.328 350.458,97.814 351.007,98.475 351.678 M194.082 399.924 C 194.317 399.986,194.701 399.986,194.936 399.924 C 195.171 399.863,194.979 399.813,194.509 399.813 C 194.039 399.813,193.847 399.863,194.082 399.924 M205.064 399.924 C 205.299 399.986,205.683 399.986,205.918 399.924 C 206.153 399.863,205.961 399.813,205.491 399.813 C 205.021 399.813,204.829 399.863,205.064 399.924 " stroke="none" fill="#57a092" fill-rule="evenodd"></path><path id="path3" d="M195.793 0.175 C 196.164 0.231,196.714 0.230,197.014 0.172 C 197.314 0.114,197.010 0.068,196.339 0.070 C 195.668 0.072,195.422 0.119,195.793 0.175 M203.115 0.175 C 203.486 0.231,204.035 0.230,204.335 0.172 C 204.635 0.114,204.332 0.068,203.661 0.070 C 202.990 0.072,202.744 0.119,203.115 0.175 M277.117 46.736 C 277.117 63.917,277.146 70.910,277.181 62.275 C 277.217 53.641,277.217 39.583,277.181 31.037 C 277.146 22.490,277.117 29.555,277.117 46.736 M302.973 35.265 C 302.973 38.621,303.008 40.028,303.050 38.391 C 303.092 36.755,303.092 34.009,303.050 32.290 C 303.008 30.571,302.974 31.910,302.973 35.265 M294.675 35.387 C 294.675 38.676,294.710 40.021,294.752 38.377 C 294.794 36.733,294.794 34.042,294.752 32.398 C 294.710 30.754,294.675 32.099,294.675 35.387 M61.488 55.827 L 60.647 56.742 61.562 55.901 C 62.414 55.118,62.589 54.912,62.403 54.912 C 62.362 54.912,61.950 55.323,61.488 55.827 M338.255 55.766 C 338.710 56.236,339.138 56.620,339.205 56.620 C 339.272 56.620,338.954 56.236,338.499 55.766 C 338.044 55.296,337.616 54.912,337.549 54.912 C 337.482 54.912,337.800 55.296,338.255 55.766 M55.631 61.684 L 54.790 62.599 55.705 61.758 C 56.557 60.975,56.732 60.769,56.546 60.769 C 56.505 60.769,56.093 61.181,55.631 61.684 M344.112 61.623 C 344.568 62.093,344.995 62.477,345.062 62.477 C 345.129 62.477,344.812 62.093,344.356 61.623 C 343.901 61.153,343.474 60.769,343.406 60.769 C 343.339 60.769,343.657 61.153,344.112 61.623 M326.851 62.477 C 326.851 63.081,326.899 63.328,326.957 63.026 C 327.015 62.724,327.015 62.230,326.957 61.928 C 326.899 61.626,326.851 61.873,326.851 62.477 M318.557 63.575 C 318.559 64.246,318.606 64.492,318.662 64.121 C 318.718 63.750,318.717 63.201,318.659 62.901 C 318.601 62.601,318.555 62.904,318.557 63.575 M318.557 68.944 C 318.559 69.616,318.606 69.861,318.662 69.490 C 318.718 69.119,318.717 68.570,318.659 68.270 C 318.601 67.970,318.555 68.273,318.557 68.944 M326.846 69.921 C 326.849 70.458,326.899 70.649,326.957 70.345 C 327.016 70.041,327.013 69.602,326.952 69.369 C 326.891 69.135,326.843 69.384,326.846 69.921 M69.672 108.847 C 69.672 121.666,69.701 126.910,69.738 120.500 C 69.774 114.091,69.774 103.603,69.738 97.193 C 69.701 90.784,69.672 96.028,69.672 108.847 M277.052 97.193 C 277.081 102.328,277.136 105.046,277.173 103.234 C 277.344 94.867,277.348 87.858,277.181 87.858 C 277.081 87.858,277.022 92.059,277.052 97.193 M298.475 95.256 C 298.475 95.298,298.832 95.655,299.268 96.050 L 300.061 96.766 299.344 95.973 C 298.676 95.234,298.475 95.068,298.475 95.256 M371.934 113.072 C 371.934 113.114,372.291 113.471,372.727 113.865 L 373.520 114.582 372.804 113.789 C 372.135 113.050,371.934 112.884,371.934 113.072 M201.397 132.947 L 251.360 133.009 251.437 136.486 L 251.514 139.963 251.505 136.425 L 251.495 132.886 201.464 132.885 L 151.434 132.884 201.397 132.947 M277.116 160.708 C 277.116 174.131,277.145 179.658,277.181 172.990 C 277.217 166.322,277.217 155.340,277.181 148.585 C 277.145 141.830,277.116 147.285,277.116 160.708 M69.672 169.128 C 69.672 182.215,69.701 187.569,69.738 181.025 C 69.774 174.481,69.774 163.774,69.738 157.230 C 69.701 150.686,69.672 156.040,69.672 169.128 M132.032 147.285 C 132.487 147.755,132.915 148.139,132.982 148.139 C 133.049 148.139,132.731 147.755,132.276 147.285 C 131.820 146.815,131.393 146.431,131.326 146.431 C 131.259 146.431,131.576 146.815,132.032 147.285 M340.207 162.416 C 340.663 162.886,341.090 163.270,341.157 163.270 C 341.224 163.270,340.907 162.886,340.451 162.416 C 339.996 161.946,339.569 161.562,339.502 161.562 C 339.434 161.562,339.752 161.946,340.207 162.416 M0.070 196.339 C 0.072 197.010,0.119 197.256,0.175 196.885 C 0.231 196.514,0.230 195.965,0.172 195.665 C 0.114 195.365,0.068 195.668,0.070 196.339 M0.070 203.661 C 0.072 204.332,0.119 204.578,0.175 204.207 C 0.231 203.836,0.230 203.286,0.172 202.986 C 0.114 202.686,0.068 202.990,0.070 203.661 M399.826 203.661 C 399.828 204.332,399.875 204.578,399.931 204.207 C 399.987 203.836,399.986 203.286,399.928 202.986 C 399.870 202.686,399.824 202.990,399.826 203.661 M290.538 252.471 C 290.538 265.625,290.568 270.971,290.604 264.350 C 290.640 257.729,290.640 246.966,290.604 240.433 C 290.568 233.900,290.538 239.317,290.538 252.471 M290.534 291.702 C 290.470 291.870,290.446 305.131,290.481 321.171 L 290.545 350.336 290.605 320.989 L 290.665 291.643 318.548 291.580 L 346.431 291.517 318.540 291.457 C 296.408 291.410,290.626 291.460,290.534 291.702 M344.099 338.438 L 343.258 339.353 344.173 338.512 C 344.677 338.050,345.088 337.638,345.088 337.597 C 345.088 337.411,344.882 337.586,344.099 338.438 M61.501 344.234 C 61.956 344.704,62.384 345.088,62.451 345.088 C 62.518 345.088,62.200 344.704,61.745 344.234 C 61.290 343.764,60.862 343.380,60.795 343.380 C 60.728 343.380,61.046 343.764,61.501 344.234 M338.242 344.295 L 337.401 345.210 338.316 344.369 C 338.819 343.907,339.231 343.495,339.231 343.454 C 339.231 343.268,339.025 343.443,338.242 344.295 M195.793 399.931 C 196.164 399.987,196.714 399.986,197.014 399.928 C 197.314 399.870,197.010 399.824,196.339 399.826 C 195.668 399.828,195.422 399.875,195.793 399.931 M203.115 399.931 C 203.486 399.987,204.035 399.986,204.335 399.928 C 204.635 399.870,204.332 399.824,203.661 399.826 C 202.990 399.828,202.744 399.875,203.115 399.931 " stroke="none" fill="#2c8979" fill-rule="evenodd"></path><path id="path4" d="M191.885 0.175 C 192.254 0.231,192.858 0.231,193.228 0.175 C 193.597 0.119,193.295 0.073,192.556 0.073 C 191.818 0.073,191.516 0.119,191.885 0.175 M206.772 0.175 C 207.142 0.231,207.746 0.231,208.115 0.175 C 208.484 0.119,208.182 0.073,207.444 0.073 C 206.705 0.073,206.403 0.119,206.772 0.175 M187.248 0.412 C 187.483 0.474,187.868 0.474,188.103 0.412 C 188.337 0.351,188.145 0.301,187.675 0.301 C 187.206 0.301,187.013 0.351,187.248 0.412 M211.897 0.412 C 212.132 0.474,212.517 0.474,212.752 0.412 C 212.987 0.351,212.794 0.301,212.325 0.301 C 211.855 0.301,211.663 0.351,211.897 0.412 M294.643 26.846 C 294.643 27.584,294.689 27.886,294.745 27.517 C 294.801 27.148,294.801 26.544,294.745 26.174 C 294.689 25.805,294.643 26.107,294.643 26.846 M67.221 50.336 L 66.504 51.129 67.297 50.412 C 68.036 49.744,68.202 49.542,68.014 49.542 C 67.972 49.542,67.615 49.899,67.221 50.336 M331.910 49.619 C 331.910 49.661,332.267 50.018,332.703 50.412 L 333.496 51.129 332.779 50.336 C 332.111 49.596,331.910 49.430,331.910 49.619 M64.660 52.654 L 63.819 53.569 64.735 52.728 C 65.238 52.266,65.650 51.854,65.650 51.813 C 65.650 51.627,65.443 51.802,64.660 52.654 M335.082 52.593 C 335.538 53.063,335.965 53.447,336.032 53.447 C 336.099 53.447,335.782 53.063,335.326 52.593 C 334.871 52.123,334.444 51.739,334.376 51.739 C 334.309 51.739,334.627 52.123,335.082 52.593 M58.447 58.633 L 54.545 62.599 58.511 58.697 C 62.196 55.072,62.588 54.667,62.413 54.667 C 62.378 54.667,60.593 56.452,58.447 58.633 M341.306 58.572 C 343.450 60.720,345.260 62.477,345.327 62.477 C 345.394 62.477,343.694 60.720,341.550 58.572 C 339.405 56.425,337.596 54.667,337.529 54.667 C 337.461 54.667,339.161 56.425,341.306 58.572 M318.788 59.304 C 318.788 59.774,318.838 59.966,318.899 59.732 C 318.961 59.497,318.961 59.112,318.899 58.877 C 318.838 58.642,318.788 58.835,318.788 59.304 M326.841 60.037 C 326.841 60.506,326.891 60.699,326.953 60.464 C 327.014 60.229,327.014 59.844,326.953 59.610 C 326.891 59.375,326.841 59.567,326.841 60.037 M52.458 64.857 L 51.617 65.772 52.532 64.931 C 53.384 64.148,53.559 63.941,53.373 63.941 C 53.332 63.941,52.920 64.353,52.458 64.857 M347.285 64.796 C 347.740 65.265,348.168 65.650,348.235 65.650 C 348.302 65.650,347.984 65.265,347.529 64.796 C 347.074 64.326,346.646 63.941,346.579 63.941 C 346.512 63.941,346.830 64.326,347.285 64.796 M50.137 67.419 L 49.420 68.212 50.214 67.496 C 50.650 67.101,51.007 66.744,51.007 66.702 C 51.007 66.514,50.805 66.680,50.137 67.419 M348.993 66.702 C 348.993 66.744,349.350 67.101,349.786 67.496 L 350.580 68.212 349.863 67.419 C 349.195 66.680,348.993 66.514,348.993 66.702 M95.973 71.194 C 96.342 71.250,96.946 71.250,97.315 71.194 C 97.685 71.138,97.383 71.092,96.644 71.092 C 95.906 71.092,95.604 71.138,95.973 71.194 M326.841 72.483 C 326.841 72.953,326.891 73.145,326.953 72.910 C 327.014 72.675,327.014 72.291,326.953 72.056 C 326.891 71.821,326.841 72.013,326.841 72.483 M318.792 73.093 C 318.795 73.630,318.845 73.821,318.904 73.518 C 318.962 73.214,318.960 72.775,318.899 72.541 C 318.838 72.308,318.790 72.556,318.792 73.093 M126.419 81.879 C 127.283 82.752,128.046 83.466,128.113 83.466 C 128.180 83.466,127.527 82.752,126.663 81.879 C 125.798 81.007,125.035 80.293,124.968 80.293 C 124.901 80.293,125.554 81.007,126.419 81.879 M113.118 92.007 C 113.642 92.544,114.126 92.984,114.193 92.984 C 114.260 92.984,113.886 92.544,113.362 92.007 C 112.838 91.470,112.354 91.031,112.287 91.031 C 112.219 91.031,112.593 91.470,113.118 92.007 M290.909 99.207 C 291.364 99.677,291.792 100.061,291.859 100.061 C 291.926 100.061,291.608 99.677,291.153 99.207 C 290.698 98.737,290.270 98.353,290.203 98.353 C 290.136 98.353,290.454 98.737,290.909 99.207 M272.547 110.484 C 272.851 110.542,273.290 110.540,273.523 110.479 C 273.757 110.418,273.508 110.370,272.971 110.373 C 272.434 110.375,272.244 110.425,272.547 110.484 M112.996 124.832 C 112.403 125.436,111.973 125.930,112.040 125.930 C 112.107 125.930,112.647 125.436,113.240 124.832 C 113.833 124.228,114.263 123.734,114.196 123.734 C 114.128 123.734,113.589 124.228,112.996 124.832 M75.334 132.215 C 78.580 132.253,83.961 132.253,87.292 132.215 C 90.624 132.176,87.968 132.145,81.391 132.145 C 74.814 132.145,72.088 132.176,75.334 132.215 M354.362 141.184 C 355.092 141.922,355.743 142.526,355.810 142.526 C 355.877 142.526,355.336 141.922,354.606 141.184 C 353.877 140.445,353.226 139.841,353.159 139.841 C 353.092 139.841,353.633 140.445,354.362 141.184 M76.693 145.393 C 80.686 145.431,87.221 145.431,91.214 145.393 C 95.207 145.356,91.940 145.325,83.954 145.325 C 75.967 145.325,72.700 145.356,76.693 145.393 M348.495 146.736 C 349.506 147.813,349.725 148.007,349.725 147.824 C 349.725 147.785,349.204 147.263,348.566 146.665 L 347.407 145.577 348.495 146.736 M170.428 148.078 C 180.875 148.113,197.897 148.113,208.256 148.078 C 218.614 148.043,210.067 148.014,189.262 148.014 C 168.456 148.014,159.981 148.043,170.428 148.078 M298.536 153.142 C 298.539 153.679,298.589 153.870,298.647 153.566 C 298.706 153.263,298.703 152.824,298.642 152.590 C 298.581 152.357,298.534 152.605,298.536 153.142 M290.483 154.118 C 290.485 154.655,290.535 154.846,290.594 154.543 C 290.652 154.239,290.650 153.800,290.589 153.566 C 290.528 153.333,290.480 153.581,290.483 154.118 M395.345 159.446 C 395.966 160.131,396.100 160.215,396.088 159.915 C 396.083 159.814,395.781 159.521,395.416 159.263 L 394.753 158.795 395.345 159.446 M341.672 164.079 C 341.672 164.121,342.029 164.478,342.465 164.872 L 343.258 165.589 342.541 164.796 C 341.873 164.056,341.672 163.890,341.672 164.079 M391.275 166.374 C 391.644 166.430,392.248 166.430,392.617 166.374 C 392.987 166.318,392.685 166.272,391.946 166.272 C 391.208 166.272,390.906 166.318,391.275 166.374 M139.410 172.544 C 139.410 173.014,139.460 173.206,139.521 172.971 C 139.583 172.736,139.583 172.352,139.521 172.117 C 139.460 171.882,139.410 172.074,139.410 172.544 M0.301 187.675 C 0.301 188.145,0.351 188.337,0.412 188.103 C 0.474 187.868,0.474 187.483,0.412 187.248 C 0.351 187.013,0.301 187.206,0.301 187.675 M399.569 187.675 C 399.569 188.145,399.619 188.337,399.680 188.103 C 399.742 187.868,399.742 187.483,399.680 187.248 C 399.619 187.013,399.569 187.206,399.569 187.675 M292.251 188.652 L 280.781 188.781 292.312 188.838 C 299.876 188.876,303.844 188.812,303.844 188.652 C 303.844 188.517,303.816 188.433,303.783 188.465 C 303.749 188.497,298.560 188.581,292.251 188.652 M338.133 188.652 L 314.948 188.777 338.194 188.837 C 353.568 188.876,361.440 188.813,361.440 188.652 C 361.440 188.517,361.412 188.434,361.379 188.467 C 361.345 188.499,350.885 188.582,338.133 188.652 M387.111 188.834 C 389.350 188.874,393.084 188.874,395.408 188.834 C 397.732 188.794,395.900 188.761,391.336 188.761 C 386.772 188.761,384.871 188.794,387.111 188.834 M0.073 192.556 C 0.073 193.295,0.119 193.597,0.175 193.228 C 0.231 192.858,0.231 192.254,0.175 191.885 C 0.119 191.516,0.073 191.818,0.073 192.556 M128.972 196.034 L 127.761 197.315 129.042 196.104 C 130.233 194.979,130.435 194.753,130.253 194.753 C 130.215 194.753,129.638 195.329,128.972 196.034 M309.884 196.888 C 326.428 196.923,353.499 196.923,370.043 196.888 C 386.586 196.854,373.051 196.825,339.963 196.825 C 306.876 196.825,293.340 196.854,309.884 196.888 M0.073 207.444 C 0.073 208.182,0.119 208.484,0.175 208.115 C 0.231 207.746,0.231 207.142,0.175 206.772 C 0.119 206.403,0.073 206.705,0.073 207.444 M399.826 207.322 C 399.828 207.993,399.875 208.238,399.931 207.867 C 399.987 207.496,399.986 206.947,399.928 206.647 C 399.870 206.347,399.824 206.650,399.826 207.322 M100.854 207.368 C 101.089 207.429,101.473 207.429,101.708 207.368 C 101.943 207.306,101.751 207.256,101.281 207.256 C 100.811 207.256,100.619 207.306,100.854 207.368 M0.301 212.325 C 0.301 212.794,0.351 212.987,0.412 212.752 C 0.474 212.517,0.474 212.132,0.412 211.897 C 0.351 211.663,0.301 211.855,0.301 212.325 M399.569 212.325 C 399.569 212.794,399.619 212.987,399.680 212.752 C 399.742 212.517,399.742 212.132,399.680 211.897 C 399.619 211.663,399.569 211.855,399.569 212.325 M355.935 221.110 C 355.935 225.339,355.969 227.068,356.009 224.954 C 356.050 222.840,356.050 219.381,356.009 217.267 C 355.969 215.153,355.935 216.882,355.935 221.110 M37.298 251.556 C 54.121 251.590,81.577 251.590,98.311 251.556 C 115.045 251.521,101.281 251.493,67.724 251.493 C 34.167 251.493,20.476 251.521,37.298 251.556 M191.641 254.484 C 202.346 254.520,219.863 254.520,230.567 254.484 C 241.272 254.449,232.514 254.420,211.104 254.420 C 189.695 254.420,180.937 254.449,191.641 254.484 M9.034 259.854 C 9.036 260.156,9.094 260.192,9.230 259.978 C 9.377 259.746,12.112 259.660,21.001 259.609 L 32.581 259.544 20.805 259.485 C 9.730 259.430,9.030 259.452,9.034 259.854 M64.144 259.610 C 75.866 259.645,94.975 259.645,106.609 259.609 C 118.242 259.574,108.652 259.546,85.296 259.546 C 61.940 259.546,52.422 259.574,64.144 259.610 M147.995 265.406 C 147.995 267.688,148.031 268.654,148.076 267.553 C 148.122 266.452,148.122 264.585,148.077 263.404 C 148.032 262.223,147.995 263.124,147.995 265.406 M139.473 326.907 C 139.473 362.074,139.502 376.425,139.536 358.797 C 139.571 341.168,139.571 312.395,139.536 294.855 C 139.502 277.316,139.473 291.739,139.473 326.907 M318.300 276.449 L 346.302 276.512 346.370 284.016 L 346.438 291.519 346.495 283.893 L 346.553 276.266 318.426 276.326 L 290.299 276.386 318.300 276.449 M65.155 282.062 L 63.575 283.710 65.223 282.130 C 66.753 280.663,66.982 280.415,66.802 280.415 C 66.765 280.415,66.023 281.156,65.155 282.062 M70.768 287.919 L 69.189 289.567 70.836 287.988 C 72.366 286.521,72.595 286.272,72.415 286.272 C 72.378 286.272,71.636 287.013,70.768 287.919 M115.741 298.155 C 115.976 298.216,116.361 298.216,116.595 298.155 C 116.830 298.093,116.638 298.043,116.168 298.043 C 115.699 298.043,115.506 298.093,115.741 298.155 M116.598 306.213 C 116.902 306.271,117.341 306.269,117.575 306.208 C 117.808 306.147,117.559 306.099,117.023 306.102 C 116.486 306.105,116.295 306.155,116.598 306.213 M118.670 306.208 C 118.905 306.270,119.289 306.270,119.524 306.208 C 119.759 306.147,119.567 306.097,119.097 306.097 C 118.627 306.097,118.435 306.147,118.670 306.208 M46.680 325.564 C 46.680 326.168,46.728 326.415,46.786 326.113 C 46.844 325.811,46.844 325.317,46.786 325.015 C 46.728 324.713,46.680 324.960,46.680 325.564 M54.729 326.419 C 54.732 326.955,54.782 327.146,54.840 326.843 C 54.898 326.539,54.896 326.100,54.835 325.867 C 54.774 325.633,54.726 325.882,54.729 326.419 M89.384 327.395 C 89.387 327.932,89.437 328.123,89.495 327.819 C 89.554 327.515,89.552 327.076,89.490 326.843 C 89.429 326.609,89.382 326.858,89.384 327.395 M97.433 327.273 C 97.433 327.743,97.483 327.935,97.545 327.700 C 97.606 327.465,97.606 327.081,97.545 326.846 C 97.483 326.611,97.433 326.803,97.433 327.273 M89.389 330.445 C 89.389 331.049,89.437 331.297,89.495 330.995 C 89.553 330.692,89.553 330.198,89.495 329.896 C 89.437 329.594,89.389 329.841,89.389 330.445 M97.433 330.445 C 97.433 330.915,97.483 331.107,97.545 330.872 C 97.606 330.638,97.606 330.253,97.545 330.018 C 97.483 329.783,97.433 329.976,97.433 330.445 M54.741 331.422 C 54.741 332.160,54.786 332.462,54.842 332.093 C 54.898 331.724,54.898 331.120,54.842 330.750 C 54.786 330.381,54.741 330.683,54.741 331.422 M349.588 332.703 L 348.871 333.496 349.664 332.779 C 350.404 332.111,350.570 331.910,350.381 331.910 C 350.339 331.910,349.982 332.267,349.588 332.703 M347.272 335.265 L 346.431 336.181 347.346 335.340 C 347.849 334.877,348.261 334.465,348.261 334.424 C 348.261 334.238,348.055 334.414,347.272 335.265 M341.303 341.489 L 337.401 345.455 341.367 341.553 C 345.051 337.928,345.443 337.523,345.269 337.523 C 345.234 337.523,343.449 339.308,341.303 341.489 M58.816 341.794 C 60.759 343.740,62.404 345.333,62.471 345.333 C 62.538 345.333,61.003 343.740,59.060 341.794 C 57.118 339.847,55.473 338.255,55.406 338.255 C 55.339 338.255,56.874 339.847,58.816 341.794 M64.674 347.407 C 65.129 347.877,65.556 348.261,65.624 348.261 C 65.691 348.261,65.373 347.877,64.918 347.407 C 64.462 346.937,64.035 346.553,63.968 346.553 C 63.901 346.553,64.218 346.937,64.674 347.407 M335.069 347.468 L 334.228 348.383 335.143 347.542 C 335.647 347.080,336.059 346.668,336.059 346.627 C 336.059 346.441,335.852 346.616,335.069 347.468 M66.626 349.070 C 66.626 349.112,66.983 349.469,67.419 349.863 L 68.212 350.580 67.496 349.786 C 66.827 349.047,66.626 348.881,66.626 349.070 M332.504 349.786 L 331.788 350.580 332.581 349.863 C 333.320 349.195,333.486 348.993,333.298 348.993 C 333.256 348.993,332.899 349.350,332.504 349.786 M276.449 350.152 C 279.033 350.192,283.261 350.192,285.845 350.152 C 288.429 350.113,286.315 350.080,281.147 350.080 C 275.979 350.080,273.865 350.113,276.449 350.152 M187.248 399.680 C 187.483 399.742,187.868 399.742,188.103 399.680 C 188.337 399.619,188.145 399.569,187.675 399.569 C 187.206 399.569,187.013 399.619,187.248 399.680 M211.897 399.680 C 212.132 399.742,212.517 399.742,212.752 399.680 C 212.987 399.619,212.794 399.569,212.325 399.569 C 211.855 399.569,211.663 399.619,211.897 399.680 M191.885 399.931 C 192.254 399.987,192.858 399.987,193.228 399.931 C 193.597 399.875,193.295 399.829,192.556 399.829 C 191.818 399.829,191.516 399.875,191.885 399.931 M206.772 399.931 C 207.142 399.987,207.746 399.987,208.115 399.931 C 208.484 399.875,208.182 399.829,207.444 399.829 C 206.705 399.829,206.403 399.875,206.772 399.931 " stroke="none" fill="#7cbcb4" fill-rule="evenodd"></path></g></svg>